Coordinates
version=1
nRows=8
nColumns=46
inDegrees=yes

Units are S.I. units (second, meters, Newtons, ...)
Angles are in degrees.

endheader
time	pelvis_tilt	pelvis_list	pelvis_rotation	pelvis_tx	pelvis_ty	pelvis_tz	bb_angle	bb_tx	bb_ty	bb_tz	hip_flexion_r	hip_adduction_r	hip_rotation_r	knee_angle_r	knee_angle_r_beta	ankle_angle_r	subtalar_angle_r	mtp_angle_r	crank_angle_r	hip_flexion_l	hip_adduction_l	hip_rotation_l	knee_angle_l	knee_angle_l_beta	ankle_angle_l	subtalar_angle_l	mtp_angle_l	crank_angle_l	lumbar_extension	lumbar_bending	lumbar_rotation	arm_flex_r	arm_add_r	arm_rot_r	elbow_flex_r	pro_sup_r	wrist_flex_r	wrist_dev_r	arm_flex_l	arm_add_l	arm_rot_l	elbow_flex_l	pro_sup_l	wrist_flex_l	wrist_dev_l
      5.00500000	    -16.98499279	      0.42196793	      8.42885309	      0.12098409	      1.10818186	     -0.24917939	      0.00000000	      0.50000000	      0.00000000	      0.25000000	     62.42747446	     -9.49205932	     -1.15731293	     81.39334244	      1.42058181	    -33.58015587	    -21.06654917	      0.00000000	      0.00000000	     73.04982140	      4.71792188	      5.00062172	     66.17858993	      1.15503429	      8.49650342	    -10.65258211	      0.00000000	      0.00000000	    -58.81940897	      2.51151824	     -5.22345982	     89.70750738	     -8.21008137	     32.08581073	     33.67026981	     28.00390111	      0.00000000	      0.00000000	     89.57934712	     -7.43585783	     34.02334826	     44.29024615	     31.27864331	      0.00000000	      0.00000000
      5.01000000	    -16.64415580	      0.12725777	      8.34397000	      0.12139516	      1.10802429	     -0.24980264	      0.00000000	      0.50000000	      0.00000000	      0.25000000	     63.35209642	     -9.26515316	     -1.00481661	     83.73300917	      1.46141670	    -33.02185520	    -20.79171068	      0.00000000	      0.00000000	     71.21311264	      4.54870392	      5.42469393	     63.79063209	      1.11335656	      7.43263826	    -11.02613265	      0.00000000	      0.00000000	    -59.11133267	      2.69449255	     -4.88927632	     89.70589925	     -8.36690178	     32.04795470	     33.84847515	     27.87729993	      0.00000000	      0.00000000	     89.58099008	     -7.40831273	     34.23671233	     44.29740447	     31.18968417	      0.00000000	      0.00000000
      5.01500000	    -16.39562914	     -0.34579406	      8.20237623	      0.12175350	      1.10769882	     -0.25018682	      0.00000000	      0.50000000	      0.00000000	      0.25000000	     64.37367135	     -8.81876252	     -0.95199612	     85.99063357	      1.50081968	    -32.36341108	    -20.56332890	      0.00000000	      0.00000000	     69.50664635	      4.16453046	      5.96590457	     61.45588424	      1.07260752	      6.47770194	    -10.98499256	      0.00000000	      0.00000000	    -59.29819758	      2.94362173	     -4.42611759	     89.70480246	     -8.44865175	     32.08006651	     34.08518335	     27.71322769	      0.00000000	      0.00000000	     89.58094788	     -7.51976967	     34.40108063	     44.34055345	     31.06345299	      0.00000000	      0.00000000
      5.02000000	    -16.15445410	     -0.84712017	      8.01740321	      0.12217227	      1.10733760	     -0.25064011	      0.00000000	      0.50000000	      0.00000000	      0.25000000	     65.40469794	     -8.34084440	     -0.88913232	     88.27609864	      1.54070857	    -31.36606710	    -20.20317198	      0.00000000	      0.00000000	     67.80887385	      3.71335581	      6.46222432	     59.16216062	      1.03257450	      5.43670650	    -11.13154283	      0.00000000	      0.00000000	    -59.48065599	      3.17655797	     -3.92405749	     89.70604359	     -8.67395900	     32.74533122	     34.54489968	     26.33064950	      0.00000000	      0.00000000	     89.57732242	     -7.68711993	     34.73352907	     44.59794285	     30.12617508	      0.00000000	      0.00000000
      5.02500000	    -15.84127835	     -1.34023458	      7.79791002	      0.12265213	      1.10723479	     -0.25106143	      0.00000000	      0.50000000	      0.00000000	      0.25000000	     66.36050312	     -7.81893106	     -0.86647119	     90.43817206	      1.57844387	    -30.49828113	    -20.08426220	      0.00000000	      0.00000000	     65.98840416	      3.14394824	      6.87116584	     56.84056048	      0.99205493	      4.50373608	    -10.91280836	      0.00000000	      0.00000000	    -59.80995845	      3.38216736	     -3.38453422	     89.70291733	     -8.73257174	     32.23303327	     34.93505198	     26.81068486	      0.00000000	      0.00000000	     89.56447356	     -7.73552067	     34.40486796	     44.92452050	     30.48861294	      0.00000000	      0.00000000
      5.03000000	    -15.58541974	     -1.95491138	      7.65166838	      0.12279153	      1.10676870	     -0.25158672	      0.00000000	      0.50000000	      0.00000000	      0.25000000	     67.41457947	     -7.31571650	     -0.98292308	     92.62311994	      1.61657841	    -29.42191046	    -20.07264976	      0.00000000	      0.00000000	     64.33012040	      2.55169610	      7.37764876	     54.59241718	      0.95281743	      3.54432262	    -10.90745239	      0.00000000	      0.00000000	    -60.00440537	      3.74334261	     -2.78922315	     89.70246271	     -8.68213200	     31.91759395	     35.13964428	     26.75114779	      0.00000000	      0.00000000	     89.55802785	     -7.81005872	     34.25697082	     45.02841221	     30.39466159	      0.00000000	      0.00000000
      5.03500000	    -15.47998557	     -2.40716762	      7.45931320	      0.12318912	      1.10621844	     -0.25226640	      0.00000000	      0.50000000	      0.00000000	      0.25000000	     68.65354897	     -6.94637967	     -0.92373110	     94.82336638	      1.65497995	    -27.84670771	    -19.31056054	      0.00000000	      0.00000000	     62.74592599	      2.03334717	      7.69479720	     52.31707466	      0.91310521	      2.11874541	    -10.83936203	      0.00000000	      0.00000000	    -59.98685495	      3.92209879	     -2.38925967	     89.70244057	     -8.63451800	     31.87859186	     35.01483771	     27.14283208	      0.00000000	      0.00000000	     89.56538466	     -7.82089007	     34.72049160	     44.52141596	     30.70256737	      0.00000000	      0.00000000
      5.04000000	    -15.48371120	     -2.96357614	      7.14181173	      0.12360702	      1.10541501	     -0.25272338	      0.00000000	      0.50000000	      0.00000000	      0.25000000	     70.03179546	     -6.38978886	     -0.93609181	     96.93892322	      1.69190338	    -26.31950778	    -18.91024797	      0.00000000	      0.00000000	     61.34604376	      1.27987943	      7.85448857	     50.15669390	      0.87539945	      0.87689155	    -10.68555451	      0.00000000	      0.00000000	    -59.85697179	      4.10130959	     -1.82585011	     89.70679355	     -8.74873726	     32.59159540	     34.73495097	     27.31176860	      0.00000000	      0.00000000	     89.57110918	     -8.16936381	     35.50274136	     44.28299675	     30.91801964	      0.00000000	      0.00000000
